<svg version="1.0" xmlns="http://www.w3.org/2000/svg" xmlns:xlink="http://www.w3.org/1999/xlink" x="0" y="0" width="2400" height="661.470206229081" viewBox="82.28336181640626 98.4478744506836 175.4332763671875 48.351618957519534" preserveAspectRatio="xMidYMid meet" color-interpolation-filters="sRGB"><g><defs><linearGradient id="92" x1="0%" y1="0%" x2="100%" y2="0%"><stop offset="0%" stop-color="#fa71cd"></stop> <stop offset="100%" stop-color="#9b59b6"></stop></linearGradient><linearGradient id="93" x1="0%" y1="0%" x2="100%" y2="0%"><stop offset="0%" stop-color="#f9d423"></stop> <stop offset="100%" stop-color="#f83600"></stop></linearGradient><linearGradient id="94" x1="0%" y1="0%" x2="100%" y2="0%"><stop offset="0%" stop-color="#0064d2"></stop> <stop offset="100%" stop-color="#1cb0f6"></stop></linearGradient><linearGradient id="95" x1="0%" y1="0%" x2="100%" y2="0%"><stop offset="0%" stop-color="#f00978"></stop> <stop offset="100%" stop-color="#3f51b1"></stop></linearGradient><linearGradient id="96" x1="0%" y1="0%" x2="100%" y2="0%"><stop offset="0%" stop-color="#7873f5"></stop> <stop offset="100%" stop-color="#ec77ab"></stop></linearGradient><linearGradient id="97" x1="0%" y1="0%" x2="100%" y2="0%"><stop offset="0%" stop-color="#f9d423"></stop> <stop offset="100%" stop-color="#e14fad"></stop></linearGradient><linearGradient id="98" x1="0%" y1="0%" x2="100%" y2="0%"><stop offset="0%" stop-color="#009efd"></stop> <stop offset="100%" stop-color="#2af598"></stop></linearGradient><linearGradient id="99" x1="0%" y1="0%" x2="100%" y2="0%"><stop offset="0%" stop-color="#ffcc00"></stop> <stop offset="100%" stop-color="#00b140"></stop></linearGradient><linearGradient id="100" x1="0%" y1="0%" x2="100%" y2="0%"><stop offset="0%" stop-color="#d51007"></stop> <stop offset="100%" stop-color="#ff8177"></stop></linearGradient><linearGradient id="102" x1="0%" y1="0%" x2="100%" y2="0%"><stop offset="0%" stop-color="#a2b6df"></stop> <stop offset="100%" stop-color="#0c3483"></stop></linearGradient><linearGradient id="103" x1="0%" y1="0%" x2="100%" y2="0%"><stop offset="0%" stop-color="#7ac5d8"></stop> <stop offset="100%" stop-color="#eea2a2"></stop></linearGradient><linearGradient id="104" x1="0%" y1="0%" x2="100%" y2="0%"><stop offset="0%" stop-color="#00ecbc"></stop> <stop offset="100%" stop-color="#007adf"></stop></linearGradient><linearGradient id="105" x1="0%" y1="0%" x2="100%" y2="0%"><stop offset="0%" stop-color="#b88746"></stop> <stop offset="100%" stop-color="#fdf5a6"></stop></linearGradient></defs><g fill="#ffffff" class="iconlinesvg-g iconlinesvg" transform="translate(83.99925374984741,104.92354393005371)"><g class="tp-name" transform="translate(0,0)"><g transform="translate(0, 0)"><g fill="#ffffff" transform="scale(1)"><path d="M14.66-3.86C10.00-3.86 6.28-7.22 6.28-12.64C6.28-17.73 9.46-21.41 14.66-21.41C16.97-21.41 19.10-20.47 20.62-18.96L23.58-21.92C21.30-24.23 18.16-25.64 14.66-25.64C7.26-25.64 1.99-20.26 1.99-12.64C1.99-4.69 7.69 0.36 14.66 0.36C18.16 0.36 21.30-1.05 23.58-3.32L20.62-6.32C19.10-4.80 16.97-3.86 14.66-3.86Z" transform="translate(-1.9859578736208627, 25.63691073219659)"></path></g></g><g transform="translate(25, 0)"><g fill="#ffffff" transform="scale(1)"><path d="M14.34-25.60C-2.31-25.60-2.35 0.32 14.34 0.32C30.94 0.32 30.91-25.60 14.34-25.60ZM14.34-3.76C3.39-3.76 3.43-21.48 14.34-21.48C25.28-21.48 25.28-3.76 14.34-3.76Z" transform="translate(-1.837007365544065, 25.63691073219659)"></path></g></g><g transform="translate(53, 0)"><g fill="#ffffff" transform="scale(1)"><path d="M23.90-25.28L19.72-25.28L19.72-7.29L7.11-25.28L2.85-25.28L2.85 0L7.08 0L7.08-17.98L19.64 0L23.90 0Z" transform="translate(-2.852557673019057, 25.63691073219659)"></path></g></g><g transform="translate(78, 1.2442605351849458)"><g mask="url(#75c369c4-930e-4153-bb83-a0365987ce1a)"><g class="imagesvg"><g><rect fill="#ffffff" fill-opacity="0" stroke-width="2" x="0" y="0" width="22.561100774322973" height="23.509472911575948" class="image-rect"></rect> <svg filter="url(#colors3671761715)" x="0" y="0" width="22.561100774322973" height="23.509472911575948" filtersec="colorsf2715287392" class="image-svg-svg primary" style="overflow: visible;"><svg xmlns="http://www.w3.org/2000/svg" viewBox="0.8299999833106995 1.4975168704986572 93.08900451660156 97.00247955322266"><path fill="#333333" d="M.83 50c0 26.786 21.715 48.5 48.5 48.5 19.997 0 37.164-12.102 44.589-29.38a40.839 40.839 0 0 1-28.152 11.192c-22.646 0-41-18.361-41-41.007 0-17.008 10.357-31.595 25.102-37.805C22.869 1.23.83 22.98.83 50zm74.065-6.12h.07c0 6.396 5.23 11.626 11.626 11.626v.07c-6.397 0-11.627 5.23-11.627 11.619h-.069c0-6.39-5.23-11.62-11.626-11.62v-.069c6.396 0 11.626-5.23 11.626-11.626zM54.388 12.864h.118c0 11.185 9.15 20.334 20.334 20.334v.118c-11.185 0-20.334 9.15-20.334 20.334h-.118c0-11.185-9.149-20.334-20.334-20.334v-.118c11.178 0 20.334-9.149 20.334-20.334z"></path></svg></svg> <defs><filter id="colors3671761715"><feColorMatrix type="matrix" values="0 0 0 0 0.19921875  0 0 0 0 0.19921875  0 0 0 0 0.19921875  0 0 0 1 0" class="icon-feColorMatrix "></feColorMatrix></filter> <filter id="colorsf2715287392"><feColorMatrix type="matrix" values="0 0 0 0 0.99609375  0 0 0 0 0.99609375  0 0 0 0 0.99609375  0 0 0 1 0" class="icon-fecolormatrix"></feColorMatrix></filter> <filter id="colorsb8755589742"><feColorMatrix type="matrix" values="0 0 0 0 0  0 0 0 0 0  0 0 0 0 0  0 0 0 1 0" class="icon-fecolormatrix"></feColorMatrix></filter></defs></g></g><rect v-gra="id" width="34.561100006103516" height="35.50947380065918" transform="translate(-6, -6)" style="pointer-events:none;" fill="url(#nBvCDekRah8Zo1dul9sRD)"></rect></g></g><g transform="translate(104, 0)"><g fill="#ffffff" transform="scale(1)"><path d="M14.34-25.60C-2.31-25.60-2.35 0.32 14.34 0.32C30.94 0.32 30.91-25.60 14.34-25.60ZM14.34-3.76C3.39-3.76 3.43-21.48 14.34-21.48C25.28-21.48 25.28-3.76 14.34-3.76Z" transform="translate(-1.837007365544065, 25.63691073219659)"></path></g></g><g transform="translate(132, 0)"><g fill="#ffffff" transform="scale(1)"><path d="M15.31 0L19.97 0L14.80-11.19C17.08-12.02 19.68-13.83 19.68-17.91C19.68-25.28 11.23-25.28 11.23-25.28L2.82-25.28L2.82 0L7.04 0L7.04-10.54L10.47-10.54ZM7.04-21.05L11.23-21.05C11.23-21.05 15.45-21.05 15.45-17.91C15.45-14.73 11.23-14.73 11.23-14.73L7.04-14.73Z" transform="translate(-2.816449348044132, 25.63691073219659)"></path></g></g><g transform="translate(153, 0)"><g fill="#ffffff" transform="scale(1)"><path d="M2.85-25.28L2.85 0L7.08 0C13.36 0 21.85-1.84 21.85-12.64C21.85-23.87 13.22-25.28 7.08-25.28ZM7.08-4.12L7.08-21.16C7.08-21.16 17.58-22.75 17.58-12.64C17.58-2.67 7.08-4.12 7.08-4.12Z" transform="translate(-2.852557673019057, 25.63691073219659)"></path></g></g></g> <g fill-rule="" class="tp-slogan" fill="#ffffff" transform="translate(42.33670425415039,32)"> <g transform="scale(1, 1)"><g transform="scale(1)"><path d="M3.98 0.14C4.48 0.14 4.93 0.05 5.35-0.14C5.76-0.34 6.11-0.61 6.41-0.97C6.71-1.32 6.95-1.75 7.11-2.26C7.27-2.77 7.36-3.34 7.36-3.97C7.36-4.60 7.27-5.16 7.11-5.66C6.95-6.16 6.71-6.58 6.41-6.93C6.11-7.28 5.76-7.55 5.35-7.73C4.93-7.92 4.48-8.02 3.98-8.02C3.49-8.02 3.03-7.92 2.62-7.74C2.21-7.56 1.86-7.29 1.56-6.94C1.26-6.59 1.03-6.17 0.87-5.67C0.71-5.17 0.62-4.60 0.62-3.97C0.62-3.34 0.71-2.77 0.87-2.26C1.03-1.75 1.26-1.32 1.56-0.97C1.86-0.61 2.21-0.34 2.62-0.14C3.03 0.05 3.49 0.14 3.98 0.14ZM3.98-0.73C3.63-0.73 3.31-0.81 3.03-0.96C2.75-1.11 2.50-1.33 2.30-1.61C2.09-1.90 1.94-2.24 1.82-2.63C1.71-3.03 1.66-3.48 1.66-3.97C1.66-4.46 1.71-4.90 1.82-5.29C1.94-5.68 2.09-6.02 2.30-6.29C2.50-6.56 2.75-6.77 3.03-6.92C3.31-7.07 3.63-7.14 3.98-7.14C4.34-7.14 4.65-7.07 4.94-6.92C5.22-6.77 5.47-6.56 5.67-6.29C5.87-6.02 6.03-5.68 6.14-5.29C6.26-4.90 6.31-4.46 6.31-3.97C6.31-3.48 6.26-3.03 6.14-2.63C6.03-2.24 5.87-1.90 5.67-1.61C5.47-1.33 5.22-1.11 4.94-0.96C4.65-0.81 4.34-0.73 3.98-0.73ZM8.17-7.87L9.84 0L11.03 0L12.19-4.74C12.26-5.04 12.32-5.34 12.39-5.63C12.46-5.93 12.52-6.22 12.59-6.53L12.64-6.53C12.70-6.22 12.76-5.93 12.82-5.63C12.88-5.34 12.95-5.04 13.02-4.74L14.21 0L15.41 0L17.04-7.87L16.08-7.87L15.25-3.59C15.17-3.16 15.10-2.74 15.02-2.32C14.95-1.90 14.88-1.48 14.81-1.04L14.76-1.04C14.66-1.48 14.57-1.90 14.47-2.33C14.38-2.75 14.28-3.17 14.18-3.59L13.09-7.87L12.18-7.87L11.09-3.59C11.00-3.16 10.91-2.74 10.81-2.32C10.72-1.90 10.62-1.48 10.54-1.04L10.49-1.04C10.42-1.48 10.34-1.90 10.26-2.32C10.18-2.73 10.10-3.16 10.03-3.59L9.20-7.87ZM18.41-7.87L18.41 0L19.36 0L19.36-4.12C19.36-4.53 19.34-4.95 19.31-5.36C19.29-5.77 19.26-6.18 19.22-6.58L19.27-6.58L20.12-4.96L22.98 0L24.01 0L24.01-7.87L23.06-7.87L23.06-3.80C23.06-3.39 23.08-2.97 23.11-2.54C23.13-2.11 23.16-1.70 23.18-1.30L23.14-1.30L22.28-2.93L19.44-7.87ZM29.87-3.05L29.87 0L30.88 0L30.88-3.05L33.24-7.87L32.20-7.87L31.19-5.65C31.07-5.36 30.94-5.08 30.80-4.80C30.67-4.52 30.53-4.23 30.40-3.94L30.35-3.94C30.21-4.23 30.08-4.52 29.96-4.80C29.84-5.08 29.72-5.36 29.59-5.65L28.57-7.87L27.50-7.87ZM37.04 0.14C37.54 0.14 37.99 0.05 38.41-0.14C38.82-0.34 39.17-0.61 39.47-0.97C39.77-1.32 40.01-1.75 40.17-2.26C40.33-2.77 40.42-3.34 40.42-3.97C40.42-4.60 40.33-5.16 40.17-5.66C40.01-6.16 39.77-6.58 39.47-6.93C39.17-7.28 38.82-7.55 38.41-7.73C37.99-7.92 37.54-8.02 37.04-8.02C36.55-8.02 36.09-7.92 35.68-7.74C35.27-7.56 34.92-7.29 34.62-6.94C34.32-6.59 34.09-6.17 33.93-5.67C33.77-5.17 33.68-4.60 33.68-3.97C33.68-3.34 33.77-2.77 33.93-2.26C34.09-1.75 34.32-1.32 34.62-0.97C34.92-0.61 35.27-0.34 35.68-0.14C36.09 0.05 36.55 0.14 37.04 0.14ZM37.04-0.73C36.69-0.73 36.37-0.81 36.09-0.96C35.81-1.11 35.56-1.33 35.36-1.61C35.15-1.90 35.00-2.24 34.88-2.63C34.77-3.03 34.72-3.48 34.72-3.97C34.72-4.46 34.77-4.90 34.88-5.29C35.00-5.68 35.15-6.02 35.36-6.29C35.56-6.56 35.81-6.77 36.09-6.92C36.37-7.07 36.69-7.14 37.04-7.14C37.40-7.14 37.71-7.07 38.00-6.92C38.28-6.77 38.53-6.56 38.73-6.29C38.93-6.02 39.09-5.68 39.20-5.29C39.32-4.90 39.37-4.46 39.37-3.97C39.37-3.48 39.32-3.03 39.20-2.63C39.09-2.24 38.93-1.90 38.73-1.61C38.53-1.33 38.28-1.11 38.00-0.96C37.71-0.81 37.40-0.73 37.04-0.73ZM42.07-7.87L42.07-3.25C42.07-2.62 42.14-2.09 42.29-1.66C42.43-1.22 42.63-0.87 42.88-0.61C43.13-0.34 43.43-0.15 43.78-0.03C44.13 0.09 44.50 0.14 44.90 0.14C45.30 0.14 45.68 0.09 46.02-0.03C46.36-0.15 46.66-0.34 46.91-0.61C47.17-0.87 47.36-1.22 47.51-1.66C47.65-2.09 47.72-2.62 47.72-3.25L47.72-7.87L46.76-7.87L46.76-3.23C46.76-2.76 46.72-2.36 46.62-2.04C46.52-1.72 46.39-1.46 46.22-1.27C46.06-1.08 45.86-0.94 45.64-0.86C45.41-0.77 45.17-0.73 44.90-0.73C44.65-0.73 44.41-0.77 44.18-0.86C43.96-0.94 43.77-1.08 43.60-1.27C43.44-1.46 43.31-1.72 43.21-2.04C43.12-2.36 43.07-2.76 43.07-3.23L43.07-7.87ZM50.84-4.14L50.84-7.07L52.16-7.07C52.78-7.07 53.25-6.96 53.58-6.76C53.91-6.55 54.07-6.18 54.07-5.66C54.07-5.15 53.91-4.77 53.58-4.52C53.25-4.27 52.78-4.14 52.16-4.14ZM54.17 0L55.30 0L53.30-3.43C53.84-3.57 54.27-3.82 54.59-4.19C54.91-4.56 55.07-5.05 55.07-5.66C55.07-6.07 55.00-6.42 54.86-6.70C54.73-6.98 54.54-7.20 54.29-7.38C54.05-7.56 53.76-7.68 53.42-7.76C53.08-7.83 52.71-7.87 52.31-7.87L49.85-7.87L49.85 0L50.84 0L50.84-3.32L52.27-3.32ZM58.16-7.87L60.68 0L61.85 0L64.34-7.87L63.32-7.87L62.06-3.62C61.93-3.15 61.80-2.72 61.69-2.32C61.58-1.92 61.45-1.48 61.31-1.02L61.26-1.02C61.11-1.48 60.98-1.92 60.87-2.32C60.76-2.72 60.64-3.15 60.49-3.62L59.23-7.87ZM68.21 0.14C68.70 0.14 69.16 0.05 69.57-0.14C69.98-0.34 70.34-0.61 70.64-0.97C70.94-1.32 71.17-1.75 71.33-2.26C71.50-2.77 71.58-3.34 71.58-3.97C71.58-4.60 71.50-5.16 71.33-5.66C71.17-6.16 70.94-6.58 70.64-6.93C70.34-7.28 69.98-7.55 69.57-7.73C69.16-7.92 68.70-8.02 68.21-8.02C67.71-8.02 67.26-7.92 66.85-7.74C66.43-7.56 66.08-7.29 65.78-6.94C65.49-6.59 65.26-6.17 65.09-5.67C64.93-5.17 64.85-4.60 64.85-3.97C64.85-3.34 64.93-2.77 65.09-2.26C65.26-1.75 65.49-1.32 65.78-0.97C66.08-0.61 66.43-0.34 66.85-0.14C67.26 0.05 67.71 0.14 68.21 0.14ZM68.21-0.73C67.86-0.73 67.54-0.81 67.25-0.96C66.97-1.11 66.73-1.33 66.52-1.61C66.32-1.90 66.16-2.24 66.05-2.63C65.94-3.03 65.88-3.48 65.88-3.97C65.88-4.46 65.94-4.90 66.05-5.29C66.16-5.68 66.32-6.02 66.52-6.29C66.73-6.56 66.97-6.77 67.25-6.92C67.54-7.07 67.86-7.14 68.21-7.14C68.56-7.14 68.88-7.07 69.16-6.92C69.45-6.77 69.69-6.56 69.89-6.29C70.10-6.02 70.26-5.68 70.37-5.29C70.48-4.90 70.54-4.46 70.54-3.97C70.54-3.48 70.48-3.03 70.37-2.63C70.26-2.24 70.10-1.90 69.89-1.61C69.69-1.33 69.45-1.11 69.16-0.96C68.88-0.81 68.56-0.73 68.21-0.73ZM73.27-7.87L73.27 0L74.27 0L74.27-7.87ZM75.97-3.94C75.97-3.30 76.06-2.72 76.23-2.21C76.40-1.71 76.64-1.28 76.95-0.93C77.26-0.58 77.62-0.32 78.04-0.13C78.46 0.05 78.92 0.14 79.42 0.14C79.92 0.14 80.37 0.04 80.76-0.16C81.15-0.36 81.50-0.64 81.82-1.00L81.25-1.61C81.00-1.33 80.73-1.11 80.44-0.96C80.16-0.81 79.82-0.73 79.44-0.73C79.06-0.73 78.73-0.81 78.43-0.96C78.13-1.11 77.87-1.33 77.66-1.61C77.46-1.89 77.29-2.23 77.18-2.62C77.06-3.02 77.00-3.46 77.00-3.96C77.00-4.45 77.06-4.89 77.18-5.28C77.30-5.67 77.47-6.01 77.69-6.28C77.90-6.56 78.16-6.77 78.47-6.92C78.77-7.07 79.11-7.14 79.49-7.14C79.82-7.14 80.12-7.07 80.37-6.94C80.62-6.81 80.85-6.63 81.06-6.41L81.62-7.04C81.39-7.30 81.10-7.53 80.74-7.72C80.38-7.92 79.96-8.02 79.48-8.02C78.97-8.02 78.51-7.92 78.08-7.73C77.65-7.55 77.28-7.28 76.97-6.92C76.66-6.57 76.41-6.14 76.24-5.64C76.06-5.14 75.97-4.57 75.97-3.94ZM83.28-7.87L83.28 0L87.94 0L87.94-0.85L84.28-0.85L84.28-3.71L87.26-3.71L87.26-4.56L84.28-4.56L84.28-7.03L87.82-7.03L87.82-7.87Z" transform="translate(-0.624, 8.016)"></path></g></g></g></g><defs v-gra="od"></defs><defs v-gra="id"><filter id="1492ced9-c12b-4c62-ac26-d6819e4554d4" filterUnits="userSpaceOnUse"><feColorMatrix type="matrix" values="0 0 0 0 0.99609375  0 0 0 0 0.99609375  0 0 0 0 0.99609375  0 0 0 1 0"></feColorMatrix></filter><linearGradient x1="0" y1="1" x2="0" y2="0" id="nBvCDekRah8Zo1dul9sRD"><stop offset="0%" stop-color="#fa709a"></stop><stop offset="100%" stop-color="#ffe13f"></stop></linearGradient><filter id="42443b3f1de60f6b6fd3b6a9844b4764" filterUnits="objectBoundingBox"><feColorMatrix type="matrix" values="0 0 0 0 0.99609375  0 0 0 0 0.99609375  0 0 0 0 0.99609375  0 0 0 1 0"></feColorMatrix></filter></defs><mask v-gra="im" id="75c369c4-930e-4153-bb83-a0365987ce1a"><g filter="url(#1492ced9-c12b-4c62-ac26-d6819e4554d4)"><g class="imagesvg"><g><rect fill="#ffffff" fill-opacity="0" stroke-width="2" x="0" y="0" width="22.561100774322973" height="23.509472911575948" class="image-rect"></rect> <svg x="0" y="0" width="22.561100774322973" height="23.509472911575948" filtersec="colorsf2715287392" class="image-svg-svg primary" style="overflow: visible;"><svg xmlns="http://www.w3.org/2000/svg" viewBox="0.8299999833106995 1.4975168704986572 93.08900451660156 97.00247955322266"><path fill="#333333" d="M.83 50c0 26.786 21.715 48.5 48.5 48.5 19.997 0 37.164-12.102 44.589-29.38a40.839 40.839 0 0 1-28.152 11.192c-22.646 0-41-18.361-41-41.007 0-17.008 10.357-31.595 25.102-37.805C22.869 1.23.83 22.98.83 50zm74.065-6.12h.07c0 6.396 5.23 11.626 11.626 11.626v.07c-6.397 0-11.627 5.23-11.627 11.619h-.069c0-6.39-5.23-11.62-11.626-11.62v-.069c6.396 0 11.626-5.23 11.626-11.626zM54.388 12.864h.118c0 11.185 9.15 20.334 20.334 20.334v.118c-11.185 0-20.334 9.15-20.334 20.334h-.118c0-11.185-9.149-20.334-20.334-20.334v-.118c11.178 0 20.334-9.149 20.334-20.334z"></path></svg></svg> <defs><filter id="colors3671761715"><feColorMatrix type="matrix" values="0 0 0 0 0.19921875  0 0 0 0 0.19921875  0 0 0 0 0.19921875  0 0 0 1 0" class="icon-fecolormatrix"></feColorMatrix></filter> <filter id="colorsf2715287392"><feColorMatrix type="matrix" values="0 0 0 0 0.99609375  0 0 0 0 0.99609375  0 0 0 0 0.99609375  0 0 0 1 0" class="icon-fecolormatrix"></feColorMatrix></filter> <filter id="colorsb8755589742"><feColorMatrix type="matrix" values="0 0 0 0 0  0 0 0 0 0  0 0 0 0 0  0 0 0 1 0" class="icon-fecolormatrix"></feColorMatrix></filter></defs></g></g></g></mask></g></svg>