
<svg
  version="1.0"
  xmlns="http://www.w3.org/2000/svg"
  xmlns:xlink="http://www.w3.org/1999/xlink"
  width="2400"
  height="1800"
>

  <rect
    x="0"
    y="0"
    width="100%"
    height="100%"
    fill="#0d0821"
    fill-opacity="1"
  ></rect>
  <svg
    version="1.0"
    xmlns="http://www.w3.org/2000/svg"
    xmlns:xlink="http://www.w3.org/1999/xlink"
    x="0"
    y="0"
    width="2400"
    height="1800"
    viewBox="0 0 340.000000 250.000000"
    preserveAspectRatio="xMidYMid meet"
    color-interpolation-filters="sRGB"
  >
    <defs><linearGradient id="92" x1="0%" y1="0%" x2="100%" y2="0%"><stop offset="0%" stop-color="#fa71cd"/> <stop offset="100%" stop-color="#9b59b6"/></linearGradient><linearGradient id="93" x1="0%" y1="0%" x2="100%" y2="0%"><stop offset="0%" stop-color="#f9d423"/> <stop offset="100%" stop-color="#f83600"/></linearGradient><linearGradient id="94" x1="0%" y1="0%" x2="100%" y2="0%"><stop offset="0%" stop-color="#0064d2"/> <stop offset="100%" stop-color="#1cb0f6"/></linearGradient><linearGradient id="95" x1="0%" y1="0%" x2="100%" y2="0%"><stop offset="0%" stop-color="#f00978"/> <stop offset="100%" stop-color="#3f51b1"/></linearGradient><linearGradient id="96" x1="0%" y1="0%" x2="100%" y2="0%"><stop offset="0%" stop-color="#7873f5"/> <stop offset="100%" stop-color="#ec77ab"/></linearGradient><linearGradient id="97" x1="0%" y1="0%" x2="100%" y2="0%"><stop offset="0%" stop-color="#f9d423"/> <stop offset="100%" stop-color="#e14fad"/></linearGradient><linearGradient id="98" x1="0%" y1="0%" x2="100%" y2="0%"><stop offset="0%" stop-color="#009efd"/> <stop offset="100%" stop-color="#2af598"/></linearGradient><linearGradient id="99" x1="0%" y1="0%" x2="100%" y2="0%"><stop offset="0%" stop-color="#ffcc00"/> <stop offset="100%" stop-color="#00b140"/></linearGradient><linearGradient id="100" x1="0%" y1="0%" x2="100%" y2="0%"><stop offset="0%" stop-color="#d51007"/> <stop offset="100%" stop-color="#ff8177"/></linearGradient><linearGradient id="102" x1="0%" y1="0%" x2="100%" y2="0%"><stop offset="0%" stop-color="#a2b6df"/> <stop offset="100%" stop-color="#0c3483"/></linearGradient><linearGradient id="103" x1="0%" y1="0%" x2="100%" y2="0%"><stop offset="0%" stop-color="#7ac5d8"/> <stop offset="100%" stop-color="#eea2a2"/></linearGradient><linearGradient id="104" x1="0%" y1="0%" x2="100%" y2="0%"><stop offset="0%" stop-color="#00ecbc"/> <stop offset="100%" stop-color="#007adf"/></linearGradient><linearGradient id="105" x1="0%" y1="0%" x2="100%" y2="0%"><stop offset="0%" stop-color="#b88746"/> <stop offset="100%" stop-color="#fdf5a6"/></linearGradient></defs> <g fill="#ffffff" class="iconlinesvg-g iconlinesvg" transform="translate(83.99925374984741,112.00308799743652)"><g class="tp-name"><g transform="translate(0, 0)"><g fill="#ffffff" transform="scale(1)"><path d="M14.66-3.86C10.00-3.86 6.28-7.22 6.28-12.64C6.28-17.73 9.46-21.41 14.66-21.41C16.97-21.41 19.10-20.47 20.62-18.96L23.58-21.92C21.30-24.23 18.16-25.64 14.66-25.64C7.26-25.64 1.99-20.26 1.99-12.64C1.99-4.69 7.69 0.36 14.66 0.36C18.16 0.36 21.30-1.05 23.58-3.32L20.62-6.32C19.10-4.80 16.97-3.86 14.66-3.86Z" transform="translate(-1.9859578736208627, 25.63691073219659)"/></g></g><g transform="translate(25, 0)"><g fill="#ffffff" transform="scale(1)"><path d="M14.34-25.60C-2.31-25.60-2.35 0.32 14.34 0.32C30.94 0.32 30.91-25.60 14.34-25.60ZM14.34-3.76C3.39-3.76 3.43-21.48 14.34-21.48C25.28-21.48 25.28-3.76 14.34-3.76Z" transform="translate(-1.837007365544065, 25.63691073219659)"/></g></g><g transform="translate(53, 0)"><g fill="#ffffff" transform="scale(1)"><path d="M23.90-25.28L19.72-25.28L19.72-7.29L7.11-25.28L2.85-25.28L2.85 0L7.08 0L7.08-17.98L19.64 0L23.90 0Z" transform="translate(-2.852557673019057, 25.63691073219659)"/></g></g><g transform="translate(78, 1.2442605351849458)"><g mask="url(#ff39e03b-4354-4c47-9b02-0bda5d0b488e)"><g class="imagesvg"><g><rect fill="#ffffff" fill-opacity="0" stroke-width="2" x="0" y="0" width="22.561100774322973" height="23.509472911575948" class="image-rect"/> <svg filter="url(#colors608348141)" x="0" y="0" width="22.561100774322973" height="23.509472911575948" filtersec="colorsf773321397" class="image-svg-svg primary" style="overflow: visible;"><svg xmlns="http://www.w3.org/2000/svg" viewBox="0.8299999833106995 1.4975168704986572 93.08900451660156 97.00247955322266"><path fill="#333333" d="M.83 50c0 26.786 21.715 48.5 48.5 48.5 19.997 0 37.164-12.102 44.589-29.38a40.839 40.839 0 0 1-28.152 11.192c-22.646 0-41-18.361-41-41.007 0-17.008 10.357-31.595 25.102-37.805C22.869 1.23.83 22.98.83 50zm74.065-6.12h.07c0 6.396 5.23 11.626 11.626 11.626v.07c-6.397 0-11.627 5.23-11.627 11.619h-.069c0-6.39-5.23-11.62-11.626-11.62v-.069c6.396 0 11.626-5.23 11.626-11.626zM54.388 12.864h.118c0 11.185 9.15 20.334 20.334 20.334v.118c-11.185 0-20.334 9.15-20.334 20.334h-.118c0-11.185-9.149-20.334-20.334-20.334v-.118c11.178 0 20.334-9.149 20.334-20.334z"/></svg></svg> <defs><filter id="colors608348141"><feColorMatrix type="matrix" values="0 0 0 0 0.19921875  0 0 0 0 0.19921875  0 0 0 0 0.19921875  0 0 0 1 0" class="icon-feColorMatrix "/></filter> <filter id="colorsf773321397"><feColorMatrix type="matrix" values="0 0 0 0 0.99609375  0 0 0 0 0.99609375  0 0 0 0 0.99609375  0 0 0 1 0" class="icon-fecolormatrix"/></filter> <filter id="colorsb4487957272"><feColorMatrix type="matrix" values="0 0 0 0 0  0 0 0 0 0  0 0 0 0 0  0 0 0 1 0" class="icon-fecolormatrix"/></filter></defs></g></g><rect v-gra="id" width="34.561100006103516" height="35.50947380065918" transform="translate(-6, -6)" style="pointer-events:none;" fill="url(#NnpEUbzIxQ6_TRwptOql_)"/></g></g><g transform="translate(104, 0)"><g fill="#ffffff" transform="scale(1)"><path d="M14.34-25.60C-2.31-25.60-2.35 0.32 14.34 0.32C30.94 0.32 30.91-25.60 14.34-25.60ZM14.34-3.76C3.39-3.76 3.43-21.48 14.34-21.48C25.28-21.48 25.28-3.76 14.34-3.76Z" transform="translate(-1.837007365544065, 25.63691073219659)"/></g></g><g transform="translate(132, 0)"><g fill="#ffffff" transform="scale(1)"><path d="M15.31 0L19.97 0L14.80-11.19C17.08-12.02 19.68-13.83 19.68-17.91C19.68-25.28 11.23-25.28 11.23-25.28L2.82-25.28L2.82 0L7.04 0L7.04-10.54L10.47-10.54ZM7.04-21.05L11.23-21.05C11.23-21.05 15.45-21.05 15.45-17.91C15.45-14.73 11.23-14.73 11.23-14.73L7.04-14.73Z" transform="translate(-2.816449348044132, 25.63691073219659)"/></g></g><g transform="translate(153, 0)"><g fill="#ffffff" transform="scale(1)"><path d="M2.85-25.28L2.85 0L7.08 0C13.36 0 21.85-1.84 21.85-12.64C21.85-23.87 13.22-25.28 7.08-25.28ZM7.08-4.12L7.08-21.16C7.08-21.16 17.58-22.75 17.58-12.64C17.58-2.67 7.08-4.12 7.08-4.12Z" transform="translate(-2.852557673019057, 25.63691073219659)"/></g></g></g> </g><defs v-gra="od"/><defs v-gra="id"><filter id="7bab87a8-e407-4807-8e21-90241e7b0f54" filterUnits="userSpaceOnUse"><feColorMatrix type="matrix" values="0 0 0 0 0.99609375  0 0 0 0 0.99609375  0 0 0 0 0.99609375  0 0 0 1 0"/></filter><linearGradient x1="0" y1="1" x2="0" y2="0" id="NnpEUbzIxQ6_TRwptOql_"><stop offset="0%" stop-color="#fa709a"/><stop offset="100%" stop-color="#ffe13f"/></linearGradient><filter id="42443b3f1de60f6b6fd3b6a9844b4764" filterUnits="objectBoundingBox"><feColorMatrix type="matrix" values="0 0 0 0 0.99609375  0 0 0 0 0.99609375  0 0 0 0 0.99609375  0 0 0 1 0"/></filter></defs><mask v-gra="im" id="ff39e03b-4354-4c47-9b02-0bda5d0b488e"><g filter="url(#7bab87a8-e407-4807-8e21-90241e7b0f54)"><g class="imagesvg"><g><rect fill="#ffffff" fill-opacity="0" stroke-width="2" x="0" y="0" width="22.561100774322973" height="23.509472911575948" class="image-rect"/> <svg x="0" y="0" width="22.561100774322973" height="23.509472911575948" filtersec="colorsf773321397" class="image-svg-svg primary" style="overflow: visible;"><svg xmlns="http://www.w3.org/2000/svg" viewBox="0.8299999833106995 1.4975168704986572 93.08900451660156 97.00247955322266"><path fill="#333333" d="M.83 50c0 26.786 21.715 48.5 48.5 48.5 19.997 0 37.164-12.102 44.589-29.38a40.839 40.839 0 0 1-28.152 11.192c-22.646 0-41-18.361-41-41.007 0-17.008 10.357-31.595 25.102-37.805C22.869 1.23.83 22.98.83 50zm74.065-6.12h.07c0 6.396 5.23 11.626 11.626 11.626v.07c-6.397 0-11.627 5.23-11.627 11.619h-.069c0-6.39-5.23-11.62-11.626-11.62v-.069c6.396 0 11.626-5.23 11.626-11.626zM54.388 12.864h.118c0 11.185 9.15 20.334 20.334 20.334v.118c-11.185 0-20.334 9.15-20.334 20.334h-.118c0-11.185-9.149-20.334-20.334-20.334v-.118c11.178 0 20.334-9.149 20.334-20.334z"/></svg></svg> <defs><filter id="colors608348141"><feColorMatrix type="matrix" values="0 0 0 0 0.19921875  0 0 0 0 0.19921875  0 0 0 0 0.19921875  0 0 0 1 0" class="icon-fecolormatrix"/></filter> <filter id="colorsf773321397"><feColorMatrix type="matrix" values="0 0 0 0 0.99609375  0 0 0 0 0.99609375  0 0 0 0 0.99609375  0 0 0 1 0" class="icon-fecolormatrix"/></filter> <filter id="colorsb4487957272"><feColorMatrix type="matrix" values="0 0 0 0 0  0 0 0 0 0  0 0 0 0 0  0 0 0 1 0" class="icon-fecolormatrix"/></filter></defs></g></g></g></mask>
  </svg>
</svg>


