<svg version="1.0" xmlns="http://www.w3.org/2000/svg" xmlns:xlink="http://www.w3.org/1999/xlink" x="0" y="0" width="2400" height="2464.57215886942" viewBox="152.37384185791015 106.89965209960937 35.25222473144531 36.200688171386716" preserveAspectRatio="xMidYMid meet" color-interpolation-filters="sRGB"><g><defs><linearGradient id="92" x1="0%" y1="0%" x2="100%" y2="0%"><stop offset="0%" stop-color="#fa71cd"></stop> <stop offset="100%" stop-color="#9b59b6"></stop></linearGradient><linearGradient id="93" x1="0%" y1="0%" x2="100%" y2="0%"><stop offset="0%" stop-color="#f9d423"></stop> <stop offset="100%" stop-color="#f83600"></stop></linearGradient><linearGradient id="94" x1="0%" y1="0%" x2="100%" y2="0%"><stop offset="0%" stop-color="#0064d2"></stop> <stop offset="100%" stop-color="#1cb0f6"></stop></linearGradient><linearGradient id="95" x1="0%" y1="0%" x2="100%" y2="0%"><stop offset="0%" stop-color="#f00978"></stop> <stop offset="100%" stop-color="#3f51b1"></stop></linearGradient><linearGradient id="96" x1="0%" y1="0%" x2="100%" y2="0%"><stop offset="0%" stop-color="#7873f5"></stop> <stop offset="100%" stop-color="#ec77ab"></stop></linearGradient><linearGradient id="97" x1="0%" y1="0%" x2="100%" y2="0%"><stop offset="0%" stop-color="#f9d423"></stop> <stop offset="100%" stop-color="#e14fad"></stop></linearGradient><linearGradient id="98" x1="0%" y1="0%" x2="100%" y2="0%"><stop offset="0%" stop-color="#009efd"></stop> <stop offset="100%" stop-color="#2af598"></stop></linearGradient><linearGradient id="99" x1="0%" y1="0%" x2="100%" y2="0%"><stop offset="0%" stop-color="#ffcc00"></stop> <stop offset="100%" stop-color="#00b140"></stop></linearGradient><linearGradient id="100" x1="0%" y1="0%" x2="100%" y2="0%"><stop offset="0%" stop-color="#d51007"></stop> <stop offset="100%" stop-color="#ff8177"></stop></linearGradient><linearGradient id="102" x1="0%" y1="0%" x2="100%" y2="0%"><stop offset="0%" stop-color="#a2b6df"></stop> <stop offset="100%" stop-color="#0c3483"></stop></linearGradient><linearGradient id="103" x1="0%" y1="0%" x2="100%" y2="0%"><stop offset="0%" stop-color="#7ac5d8"></stop> <stop offset="100%" stop-color="#eea2a2"></stop></linearGradient><linearGradient id="104" x1="0%" y1="0%" x2="100%" y2="0%"><stop offset="0%" stop-color="#00ecbc"></stop> <stop offset="100%" stop-color="#007adf"></stop></linearGradient><linearGradient id="105" x1="0%" y1="0%" x2="100%" y2="0%"><stop offset="0%" stop-color="#b88746"></stop> <stop offset="100%" stop-color="#fdf5a6"></stop></linearGradient></defs><g class="imagesvg isNoFont" transform="translate(158.71944999694824,113.24526310473448)"><g mask="url(#893e276c-524a-41de-8925-6adbe13cd436)"><rect fill="#ffffff" fill-opacity="0" stroke-width="2" x="0" y="0" width="22.561100774322973" height="23.509472911575948" class="image-rect"></rect> <svg x="0" y="0" width="22.561100774322973" height="23.509472911575948" filtersec="colorsf3393065751" class="image-svg-svg primary" style="overflow: visible;"><svg xmlns="http://www.w3.org/2000/svg" viewBox="0.8299999833106995 1.4975168704986572 93.08900451660156 97.00247955322266"><path fill="#333333" d="M.83 50c0 26.786 21.715 48.5 48.5 48.5 19.997 0 37.164-12.102 44.589-29.38a40.839 40.839 0 0 1-28.152 11.192c-22.646 0-41-18.361-41-41.007 0-17.008 10.357-31.595 25.102-37.805C22.869 1.23.83 22.98.83 50zm74.065-6.12h.07c0 6.396 5.23 11.626 11.626 11.626v.07c-6.397 0-11.627 5.23-11.627 11.619h-.069c0-6.39-5.23-11.62-11.626-11.62v-.069c6.396 0 11.626-5.23 11.626-11.626zM54.388 12.864h.118c0 11.185 9.15 20.334 20.334 20.334v.118c-11.185 0-20.334 9.15-20.334 20.334h-.118c0-11.185-9.149-20.334-20.334-20.334v-.118c11.178 0 20.334-9.149 20.334-20.334z"></path></svg><rect v-gra="id" width="34.56100845336914" height="35.50947380065918" transform="translate(-6, -6)" style="pointer-events:none;" fill="url(#r_DrScjN4yNnUAl-y_VSp)"></rect></svg> <defs><filter id="colors3499376799"><feColorMatrix type="matrix" values="0 0 0 0 0.19921875  0 0 0 0 0.19921875  0 0 0 0 0.19921875  0 0 0 1 0" class="icon-feColorMatrix "></feColorMatrix></filter> <filter id="colorsf3393065751"><feColorMatrix type="matrix" values="0 0 0 0 0.99609375  0 0 0 0 0.99609375  0 0 0 0 0.99609375  0 0 0 1 0" class="icon-fecolormatrix"></feColorMatrix></filter> <filter id="colorsb239057116"><feColorMatrix type="matrix" values="0 0 0 0 0  0 0 0 0 0  0 0 0 0 0  0 0 0 1 0" class="icon-fecolormatrix"></feColorMatrix></filter></defs></g></g><defs v-gra="od"></defs><defs v-gra="id"><filter id="d3177d32-3277-45b1-b0dc-4da1983dac5a" filterUnits="userSpaceOnUse"><feColorMatrix type="matrix" values="0 0 0 0 0.99609375  0 0 0 0 0.99609375  0 0 0 0 0.99609375  0 0 0 1 0"></feColorMatrix></filter><linearGradient x1="0" y1="1" x2="0" y2="0" id="r_DrScjN4yNnUAl-y_VSp"><stop offset="0%" stop-color="#fa709a"></stop><stop offset="100%" stop-color="#ffe13f"></stop></linearGradient><filter id="42443b3f1de60f6b6fd3b6a9844b4764" filterUnits="objectBoundingBox"><feColorMatrix type="matrix" values="0 0 0 0 0.99609375  0 0 0 0 0.99609375  0 0 0 0 0.99609375  0 0 0 1 0"></feColorMatrix></filter></defs><mask v-gra="im" id="893e276c-524a-41de-8925-6adbe13cd436"><svg filter="url(#d3177d32-3277-45b1-b0dc-4da1983dac5a)" x="0" y="0" width="22.561100774322973" height="23.509472911575948" filtersec="colorsf3393065751" class="image-svg-svg primary" style="overflow: visible;"><svg xmlns="http://www.w3.org/2000/svg" viewBox="0.8299999833106995 1.4975168704986572 93.08900451660156 97.00247955322266"><path fill="#333333" d="M.83 50c0 26.786 21.715 48.5 48.5 48.5 19.997 0 37.164-12.102 44.589-29.38a40.839 40.839 0 0 1-28.152 11.192c-22.646 0-41-18.361-41-41.007 0-17.008 10.357-31.595 25.102-37.805C22.869 1.23.83 22.98.83 50zm74.065-6.12h.07c0 6.396 5.23 11.626 11.626 11.626v.07c-6.397 0-11.627 5.23-11.627 11.619h-.069c0-6.39-5.23-11.62-11.626-11.62v-.069c6.396 0 11.626-5.23 11.626-11.626zM54.388 12.864h.118c0 11.185 9.15 20.334 20.334 20.334v.118c-11.185 0-20.334 9.15-20.334 20.334h-.118c0-11.185-9.149-20.334-20.334-20.334v-.118c11.178 0 20.334-9.149 20.334-20.334z"></path></svg></svg></mask></g></svg>